<mxfile host="app.diagrams.net" modified="2024-06-15T19:12:56.687Z" agent="Mozilla/5.0 (Windows NT 10.0; Win64; x64; rv:126.0) Gecko/20100101 Firefox/126.0" etag="HCs83VtmnzZHfRNULV-y" version="24.5.4" type="device">
  <diagram name="Pagina-1" id="0mgHzywx3EQhHFECj6pa">
    <mxGraphModel dx="2261" dy="754" grid="1" gridSize="10" guides="1" tooltips="1" connect="1" arrows="1" fold="1" page="1" pageScale="1" pageWidth="827" pageHeight="1169" math="0" shadow="0">
      <root>
        <mxCell id="0" />
        <mxCell id="1" parent="0" />
        <mxCell id="OYqQL52QQ3rmZHsjckTM-86" value="" style="rounded=0;whiteSpace=wrap;html=1;fillColor=#dae8fc;strokeColor=#6c8ebf;" vertex="1" parent="1">
          <mxGeometry x="-370" y="530" width="310" height="220" as="geometry" />
        </mxCell>
        <mxCell id="OYqQL52QQ3rmZHsjckTM-72" value="" style="rounded=0;whiteSpace=wrap;html=1;fillColor=#fff2cc;strokeColor=#d6b656;" vertex="1" parent="1">
          <mxGeometry x="-10" y="200" width="530" height="410" as="geometry" />
        </mxCell>
        <mxCell id="OYqQL52QQ3rmZHsjckTM-70" value="" style="rounded=0;whiteSpace=wrap;html=1;fillColor=#dae8fc;strokeColor=#6c8ebf;" vertex="1" parent="1">
          <mxGeometry x="-370" y="200" width="310" height="220" as="geometry" />
        </mxCell>
        <mxCell id="OYqQL52QQ3rmZHsjckTM-5" style="edgeStyle=orthogonalEdgeStyle;rounded=0;orthogonalLoop=1;jettySize=auto;html=1;exitX=0.5;exitY=1;exitDx=0;exitDy=0;entryX=0.5;entryY=0;entryDx=0;entryDy=0;" edge="1" parent="1" source="OYqQL52QQ3rmZHsjckTM-1" target="OYqQL52QQ3rmZHsjckTM-3">
          <mxGeometry relative="1" as="geometry" />
        </mxCell>
        <mxCell id="OYqQL52QQ3rmZHsjckTM-6" style="edgeStyle=orthogonalEdgeStyle;rounded=0;orthogonalLoop=1;jettySize=auto;html=1;exitX=0.5;exitY=1;exitDx=0;exitDy=0;entryX=0.5;entryY=0;entryDx=0;entryDy=0;" edge="1" parent="1" source="OYqQL52QQ3rmZHsjckTM-1" target="OYqQL52QQ3rmZHsjckTM-4">
          <mxGeometry relative="1" as="geometry" />
        </mxCell>
        <mxCell id="OYqQL52QQ3rmZHsjckTM-1" value="&lt;div&gt;CBS historic onshore wind turbine data&lt;br&gt;&lt;/div&gt;&lt;div&gt;(per height class)&lt;br&gt;&lt;/div&gt;" style="rounded=0;whiteSpace=wrap;html=1;" vertex="1" parent="1">
          <mxGeometry x="240" y="130" width="120" height="60" as="geometry" />
        </mxCell>
        <mxCell id="OYqQL52QQ3rmZHsjckTM-27" style="edgeStyle=orthogonalEdgeStyle;rounded=0;orthogonalLoop=1;jettySize=auto;html=1;exitX=0.5;exitY=1;exitDx=0;exitDy=0;entryX=0.5;entryY=0;entryDx=0;entryDy=0;" edge="1" parent="1" source="OYqQL52QQ3rmZHsjckTM-2" target="OYqQL52QQ3rmZHsjckTM-24">
          <mxGeometry relative="1" as="geometry" />
        </mxCell>
        <mxCell id="OYqQL52QQ3rmZHsjckTM-2" value="&lt;div&gt;CBS historic wind turbine stock&lt;/div&gt;&lt;div&gt;(capacity)&lt;br&gt;&lt;/div&gt;" style="rounded=0;whiteSpace=wrap;html=1;" vertex="1" parent="1">
          <mxGeometry x="-200" y="130" width="120" height="60" as="geometry" />
        </mxCell>
        <mxCell id="OYqQL52QQ3rmZHsjckTM-11" style="edgeStyle=orthogonalEdgeStyle;rounded=0;orthogonalLoop=1;jettySize=auto;html=1;exitX=0.5;exitY=1;exitDx=0;exitDy=0;entryX=0.5;entryY=0;entryDx=0;entryDy=0;" edge="1" parent="1" source="OYqQL52QQ3rmZHsjckTM-3" target="OYqQL52QQ3rmZHsjckTM-8">
          <mxGeometry relative="1" as="geometry" />
        </mxCell>
        <mxCell id="OYqQL52QQ3rmZHsjckTM-51" style="edgeStyle=orthogonalEdgeStyle;rounded=0;orthogonalLoop=1;jettySize=auto;html=1;exitX=0.25;exitY=1;exitDx=0;exitDy=0;entryX=0.5;entryY=0;entryDx=0;entryDy=0;" edge="1" parent="1" source="OYqQL52QQ3rmZHsjckTM-3" target="OYqQL52QQ3rmZHsjckTM-14">
          <mxGeometry relative="1" as="geometry">
            <Array as="points">
              <mxPoint x="130" y="310" />
              <mxPoint x="70" y="310" />
            </Array>
          </mxGeometry>
        </mxCell>
        <mxCell id="OYqQL52QQ3rmZHsjckTM-3" value="mean capacity of &lt;br&gt;&lt;div&gt;yearly inflows&lt;/div&gt;" style="rounded=0;whiteSpace=wrap;html=1;" vertex="1" parent="1">
          <mxGeometry x="100" y="230" width="120" height="60" as="geometry" />
        </mxCell>
        <mxCell id="OYqQL52QQ3rmZHsjckTM-12" style="edgeStyle=orthogonalEdgeStyle;rounded=0;orthogonalLoop=1;jettySize=auto;html=1;exitX=0.5;exitY=1;exitDx=0;exitDy=0;entryX=0.5;entryY=0;entryDx=0;entryDy=0;" edge="1" parent="1" source="OYqQL52QQ3rmZHsjckTM-4" target="OYqQL52QQ3rmZHsjckTM-9">
          <mxGeometry relative="1" as="geometry">
            <mxPoint x="460" y="330" as="targetPoint" />
          </mxGeometry>
        </mxCell>
        <mxCell id="OYqQL52QQ3rmZHsjckTM-4" value="mean swept area of yearly inflows" style="rounded=0;whiteSpace=wrap;html=1;" vertex="1" parent="1">
          <mxGeometry x="380" y="230" width="120" height="60" as="geometry" />
        </mxCell>
        <mxCell id="OYqQL52QQ3rmZHsjckTM-55" style="edgeStyle=orthogonalEdgeStyle;rounded=0;orthogonalLoop=1;jettySize=auto;html=1;exitX=0.5;exitY=1;exitDx=0;exitDy=0;entryX=0.75;entryY=0;entryDx=0;entryDy=0;" edge="1" parent="1" source="OYqQL52QQ3rmZHsjckTM-7" target="OYqQL52QQ3rmZHsjckTM-8">
          <mxGeometry relative="1" as="geometry" />
        </mxCell>
        <mxCell id="OYqQL52QQ3rmZHsjckTM-7" value="&lt;div&gt;capacity to rotor diameter correlation&lt;/div&gt;&lt;div&gt;(Li et al. 2022)&lt;br&gt;&lt;/div&gt;" style="rounded=0;whiteSpace=wrap;html=1;" vertex="1" parent="1">
          <mxGeometry x="240" y="230" width="120" height="60" as="geometry" />
        </mxCell>
        <mxCell id="OYqQL52QQ3rmZHsjckTM-56" style="edgeStyle=orthogonalEdgeStyle;rounded=0;orthogonalLoop=1;jettySize=auto;html=1;exitX=1;exitY=0.5;exitDx=0;exitDy=0;entryX=0;entryY=0.5;entryDx=0;entryDy=0;shape=link;strokeWidth=1;" edge="1" parent="1" source="OYqQL52QQ3rmZHsjckTM-57" target="OYqQL52QQ3rmZHsjckTM-9">
          <mxGeometry relative="1" as="geometry" />
        </mxCell>
        <mxCell id="OYqQL52QQ3rmZHsjckTM-64" style="edgeStyle=orthogonalEdgeStyle;rounded=0;orthogonalLoop=1;jettySize=auto;html=1;exitX=0.5;exitY=1;exitDx=0;exitDy=0;entryX=0.5;entryY=0;entryDx=0;entryDy=0;" edge="1" parent="1" source="OYqQL52QQ3rmZHsjckTM-8" target="OYqQL52QQ3rmZHsjckTM-63">
          <mxGeometry relative="1" as="geometry" />
        </mxCell>
        <mxCell id="OYqQL52QQ3rmZHsjckTM-8" value="&lt;div&gt;mean rotor diameter&lt;/div&gt;&lt;div&gt;of yearly inflows&lt;br&gt;&lt;/div&gt;&lt;div&gt;(capacity route)&lt;br&gt;&lt;/div&gt;" style="rounded=0;whiteSpace=wrap;html=1;" vertex="1" parent="1">
          <mxGeometry x="100" y="330" width="120" height="60" as="geometry" />
        </mxCell>
        <mxCell id="OYqQL52QQ3rmZHsjckTM-9" value="&lt;div&gt;mean rotor diameter&lt;/div&gt;&lt;div&gt;of yearly inflows&lt;/div&gt;&lt;div&gt;(swept area route)&lt;br&gt;&lt;/div&gt;" style="rounded=0;whiteSpace=wrap;html=1;" vertex="1" parent="1">
          <mxGeometry x="380" y="330" width="120" height="60" as="geometry" />
        </mxCell>
        <mxCell id="OYqQL52QQ3rmZHsjckTM-84" style="edgeStyle=orthogonalEdgeStyle;rounded=0;orthogonalLoop=1;jettySize=auto;html=1;exitX=0;exitY=0.5;exitDx=0;exitDy=0;entryX=0.5;entryY=0;entryDx=0;entryDy=0;" edge="1" parent="1" source="OYqQL52QQ3rmZHsjckTM-14" target="OYqQL52QQ3rmZHsjckTM-41">
          <mxGeometry relative="1" as="geometry" />
        </mxCell>
        <mxCell id="OYqQL52QQ3rmZHsjckTM-14" value="&lt;div&gt;mean material intensity of yearly inflows&lt;br&gt;&lt;/div&gt;&lt;div&gt;(kg/MW)&lt;br&gt;&lt;/div&gt;" style="rounded=0;whiteSpace=wrap;html=1;" vertex="1" parent="1">
          <mxGeometry x="10" y="510" width="120" height="60" as="geometry" />
        </mxCell>
        <mxCell id="OYqQL52QQ3rmZHsjckTM-65" style="edgeStyle=orthogonalEdgeStyle;rounded=0;orthogonalLoop=1;jettySize=auto;html=1;exitX=0;exitY=0.5;exitDx=0;exitDy=0;entryX=1;entryY=0.5;entryDx=0;entryDy=0;" edge="1" parent="1" source="OYqQL52QQ3rmZHsjckTM-15" target="OYqQL52QQ3rmZHsjckTM-63">
          <mxGeometry relative="1" as="geometry" />
        </mxCell>
        <mxCell id="OYqQL52QQ3rmZHsjckTM-15" value="&lt;div&gt;rotor diameter to rotor mass correlation&lt;/div&gt;&lt;div&gt;(..., 2011)&lt;br&gt;&lt;/div&gt;" style="rounded=0;whiteSpace=wrap;html=1;" vertex="1" parent="1">
          <mxGeometry x="250" y="410" width="120" height="60" as="geometry" />
        </mxCell>
        <mxCell id="OYqQL52QQ3rmZHsjckTM-36" style="edgeStyle=orthogonalEdgeStyle;rounded=0;orthogonalLoop=1;jettySize=auto;html=1;exitX=0.5;exitY=1;exitDx=0;exitDy=0;" edge="1" parent="1" source="OYqQL52QQ3rmZHsjckTM-24" target="OYqQL52QQ3rmZHsjckTM-34">
          <mxGeometry relative="1" as="geometry" />
        </mxCell>
        <mxCell id="OYqQL52QQ3rmZHsjckTM-24" value="wind turbine stock" style="rounded=0;whiteSpace=wrap;html=1;" vertex="1" parent="1">
          <mxGeometry x="-200" y="230" width="120" height="60" as="geometry" />
        </mxCell>
        <mxCell id="OYqQL52QQ3rmZHsjckTM-35" style="edgeStyle=orthogonalEdgeStyle;rounded=0;orthogonalLoop=1;jettySize=auto;html=1;exitX=0.5;exitY=1;exitDx=0;exitDy=0;" edge="1" parent="1" source="OYqQL52QQ3rmZHsjckTM-25" target="OYqQL52QQ3rmZHsjckTM-34">
          <mxGeometry relative="1" as="geometry" />
        </mxCell>
        <mxCell id="OYqQL52QQ3rmZHsjckTM-85" style="edgeStyle=orthogonalEdgeStyle;rounded=0;orthogonalLoop=1;jettySize=auto;html=1;exitX=0.5;exitY=1;exitDx=0;exitDy=0;entryX=0.5;entryY=0;entryDx=0;entryDy=0;" edge="1" parent="1" source="OYqQL52QQ3rmZHsjckTM-25" target="OYqQL52QQ3rmZHsjckTM-87">
          <mxGeometry relative="1" as="geometry">
            <mxPoint x="-360" y="480" as="targetPoint" />
            <Array as="points">
              <mxPoint x="-290" y="640" />
              <mxPoint x="-140" y="640" />
            </Array>
          </mxGeometry>
        </mxCell>
        <mxCell id="OYqQL52QQ3rmZHsjckTM-25" value="Lifetime distribution" style="rounded=0;whiteSpace=wrap;html=1;" vertex="1" parent="1">
          <mxGeometry x="-350" y="230" width="120" height="60" as="geometry" />
        </mxCell>
        <mxCell id="OYqQL52QQ3rmZHsjckTM-78" style="edgeStyle=orthogonalEdgeStyle;rounded=0;orthogonalLoop=1;jettySize=auto;html=1;exitX=1;exitY=0.5;exitDx=0;exitDy=0;entryX=0;entryY=0.5;entryDx=0;entryDy=0;endArrow=none;endFill=0;shape=link;" edge="1" parent="1" source="OYqQL52QQ3rmZHsjckTM-34" target="OYqQL52QQ3rmZHsjckTM-1">
          <mxGeometry relative="1" as="geometry">
            <Array as="points">
              <mxPoint x="-40" y="380" />
              <mxPoint x="-40" y="160" />
            </Array>
          </mxGeometry>
        </mxCell>
        <mxCell id="OYqQL52QQ3rmZHsjckTM-83" style="edgeStyle=orthogonalEdgeStyle;rounded=0;orthogonalLoop=1;jettySize=auto;html=1;exitX=0.5;exitY=1;exitDx=0;exitDy=0;entryX=0.5;entryY=0;entryDx=0;entryDy=0;" edge="1" parent="1" source="OYqQL52QQ3rmZHsjckTM-34" target="OYqQL52QQ3rmZHsjckTM-41">
          <mxGeometry relative="1" as="geometry" />
        </mxCell>
        <mxCell id="OYqQL52QQ3rmZHsjckTM-34" value="&lt;div&gt;inflows &amp;amp; outflows&lt;br&gt;&lt;/div&gt;" style="rounded=0;whiteSpace=wrap;html=1;" vertex="1" parent="1">
          <mxGeometry x="-200" y="350" width="120" height="60" as="geometry" />
        </mxCell>
        <mxCell id="OYqQL52QQ3rmZHsjckTM-88" style="edgeStyle=orthogonalEdgeStyle;rounded=0;orthogonalLoop=1;jettySize=auto;html=1;exitX=0.5;exitY=1;exitDx=0;exitDy=0;entryX=0.5;entryY=0;entryDx=0;entryDy=0;" edge="1" parent="1" source="OYqQL52QQ3rmZHsjckTM-41" target="OYqQL52QQ3rmZHsjckTM-87">
          <mxGeometry relative="1" as="geometry" />
        </mxCell>
        <mxCell id="OYqQL52QQ3rmZHsjckTM-41" value="&lt;div&gt;inflow&lt;/div&gt;&lt;div&gt;(mass)&lt;/div&gt;" style="rounded=0;whiteSpace=wrap;html=1;" vertex="1" parent="1">
          <mxGeometry x="-200" y="560" width="120" height="60" as="geometry" />
        </mxCell>
        <mxCell id="OYqQL52QQ3rmZHsjckTM-58" value="" style="edgeStyle=orthogonalEdgeStyle;rounded=0;orthogonalLoop=1;jettySize=auto;html=1;exitX=1;exitY=0.5;exitDx=0;exitDy=0;entryX=0;entryY=0.5;entryDx=0;entryDy=0;shape=link;strokeWidth=1;" edge="1" parent="1" source="OYqQL52QQ3rmZHsjckTM-8" target="OYqQL52QQ3rmZHsjckTM-57">
          <mxGeometry relative="1" as="geometry">
            <mxPoint x="220" y="360" as="sourcePoint" />
            <mxPoint x="380" y="360" as="targetPoint" />
          </mxGeometry>
        </mxCell>
        <mxCell id="OYqQL52QQ3rmZHsjckTM-57" value="&lt;div&gt;both routes yield&amp;nbsp;&lt;/div&gt;&lt;div&gt;similar results&lt;/div&gt;" style="ellipse;shape=cloud;whiteSpace=wrap;html=1;fillColor=default;strokeColor=default;fillOpacity=100;" vertex="1" parent="1">
          <mxGeometry x="240" y="320" width="120" height="80" as="geometry" />
        </mxCell>
        <mxCell id="OYqQL52QQ3rmZHsjckTM-66" style="edgeStyle=orthogonalEdgeStyle;rounded=0;orthogonalLoop=1;jettySize=auto;html=1;exitX=0.5;exitY=1;exitDx=0;exitDy=0;entryX=0.75;entryY=0;entryDx=0;entryDy=0;" edge="1" parent="1" source="OYqQL52QQ3rmZHsjckTM-63" target="OYqQL52QQ3rmZHsjckTM-14">
          <mxGeometry relative="1" as="geometry" />
        </mxCell>
        <mxCell id="OYqQL52QQ3rmZHsjckTM-63" value="&lt;div&gt;mean rotor mass&lt;br&gt;&lt;/div&gt;" style="rounded=0;whiteSpace=wrap;html=1;" vertex="1" parent="1">
          <mxGeometry x="100" y="410" width="120" height="60" as="geometry" />
        </mxCell>
        <mxCell id="OYqQL52QQ3rmZHsjckTM-67" value="&lt;div&gt;MI independent of&amp;nbsp;&lt;/div&gt;&lt;div&gt;turbine size/capacity&lt;/div&gt;" style="ellipse;shape=cloud;whiteSpace=wrap;html=1;fillColor=default;strokeColor=default;fillOpacity=100;" vertex="1" parent="1">
          <mxGeometry x="90" y="530" width="160" height="70" as="geometry" />
        </mxCell>
        <mxCell id="OYqQL52QQ3rmZHsjckTM-71" value="Stock-driven MFA model" style="text;html=1;align=center;verticalAlign=middle;whiteSpace=wrap;rounded=0;fontStyle=1" vertex="1" parent="1">
          <mxGeometry x="-280" y="360" width="70" height="30" as="geometry" />
        </mxCell>
        <mxCell id="OYqQL52QQ3rmZHsjckTM-73" value="&lt;div&gt;&lt;b&gt;Analysis of reported stock &amp;amp; flow data&lt;/b&gt;&lt;/div&gt;" style="text;html=1;align=center;verticalAlign=middle;whiteSpace=wrap;rounded=0;" vertex="1" parent="1">
          <mxGeometry x="380" y="510" width="120" height="30" as="geometry" />
        </mxCell>
        <mxCell id="OYqQL52QQ3rmZHsjckTM-76" style="edgeStyle=orthogonalEdgeStyle;rounded=0;orthogonalLoop=1;jettySize=auto;html=1;exitX=0.5;exitY=1;exitDx=0;exitDy=0;entryX=0.5;entryY=0;entryDx=0;entryDy=0;" edge="1" parent="1" source="OYqQL52QQ3rmZHsjckTM-74" target="OYqQL52QQ3rmZHsjckTM-24">
          <mxGeometry relative="1" as="geometry">
            <Array as="points">
              <mxPoint x="-290" y="210" />
              <mxPoint x="-140" y="210" />
            </Array>
          </mxGeometry>
        </mxCell>
        <mxCell id="OYqQL52QQ3rmZHsjckTM-74" value="&lt;div&gt;projected wind&amp;nbsp;&lt;/div&gt;&lt;div&gt;turbine stock&lt;/div&gt;&lt;div&gt;(capacity)&lt;br&gt;&lt;/div&gt;" style="rounded=0;whiteSpace=wrap;html=1;" vertex="1" parent="1">
          <mxGeometry x="-350" y="130" width="120" height="60" as="geometry" />
        </mxCell>
        <mxCell id="OYqQL52QQ3rmZHsjckTM-77" value="&lt;div&gt;No need to differentiate&amp;nbsp;&lt;/div&gt;&lt;div&gt;between onshore and offshore&lt;/div&gt;" style="ellipse;shape=cloud;whiteSpace=wrap;html=1;fillColor=default;strokeColor=default;fillOpacity=100;" vertex="1" parent="1">
          <mxGeometry x="160" y="500" width="210" height="60" as="geometry" />
        </mxCell>
        <mxCell id="OYqQL52QQ3rmZHsjckTM-80" value="compare to check if similar" style="ellipse;shape=cloud;whiteSpace=wrap;html=1;fillColor=default;strokeColor=default;fillOpacity=100;" vertex="1" parent="1">
          <mxGeometry x="-30" y="130" width="200" height="60" as="geometry" />
        </mxCell>
        <mxCell id="OYqQL52QQ3rmZHsjckTM-87" value="&lt;div&gt;stock &amp;amp; outflows&lt;/div&gt;&lt;div&gt;(mass)&lt;br&gt;&lt;/div&gt;" style="rounded=0;whiteSpace=wrap;html=1;" vertex="1" parent="1">
          <mxGeometry x="-200" y="670" width="120" height="60" as="geometry" />
        </mxCell>
        <mxCell id="OYqQL52QQ3rmZHsjckTM-89" value="Inflow-driven MFA model" style="text;html=1;align=center;verticalAlign=middle;whiteSpace=wrap;rounded=0;fontStyle=1" vertex="1" parent="1">
          <mxGeometry x="-330" y="685" width="100" height="30" as="geometry" />
        </mxCell>
        <mxCell id="OYqQL52QQ3rmZHsjckTM-91" style="edgeStyle=orthogonalEdgeStyle;rounded=0;orthogonalLoop=1;jettySize=auto;html=1;exitX=0.5;exitY=1;exitDx=0;exitDy=0;" edge="1" parent="1" source="OYqQL52QQ3rmZHsjckTM-73" target="OYqQL52QQ3rmZHsjckTM-73">
          <mxGeometry relative="1" as="geometry" />
        </mxCell>
        <mxCell id="OYqQL52QQ3rmZHsjckTM-92" value="&lt;div&gt;&lt;b&gt;This means it is a validation step&lt;/b&gt;&lt;/div&gt;" style="ellipse;shape=cloud;whiteSpace=wrap;html=1;" vertex="1" parent="1">
          <mxGeometry x="100" y="80" width="120" height="80" as="geometry" />
        </mxCell>
      </root>
    </mxGraphModel>
  </diagram>
</mxfile>
